<svg width="40" height="40" viewBox="0 0 40 40" fill="none" xmlns="http://www.w3.org/2000/svg">
<path d="M19.9868 2C10.0706 2 2.0249 10.0628 2.0249 20H12.9148L20.0124 8.26533L27.1101 20H38C37.9487 10.0628 29.903 2 19.9868 2Z" fill="#FFCC00"/>
<path d="M2 20C2 24.1341 3.40927 28.1398 6.02284 31.3495L12.8899 20H2Z" fill="#3BA8FF"/>
<path d="M33.9266 31.3495C36.5402 28.1398 37.9495 24.1341 37.9495 20H27.0596L33.9266 31.3495Z" fill="#3BA8FF"/>
<path d="M19.9875 8.26538L12.8899 20H27.0595L19.9875 8.26538Z" fill="#FF0000"/>
<path d="M12.8899 20L6.02283 31.3495C9.43072 35.5606 14.5554 38 19.9619 38C25.3684 38 30.493 35.5606 33.9009 31.3495L27.0339 20H12.8899Z" fill="#4643B9"/>
</svg>
